name p3_grf_mean_speed_1.0
datacolumns 13
datarows 57
range 0.0000000000 0.5600000000
endheader
time	grf_x_l_mean	grf_x_l_var	grf_y_l_mean	grf_y_l_var	grf_z_l_mean	grf_z_l_var	grf_x_r_mean	grf_x_r_var	grf_y_r_mean	grf_y_r_var	grf_z_r_mean	grf_z_r_var
0.0000000000	124.7479024067	1.0000000000	916.5625580904	1.0000000000	0.0000000000	0.0000000000	9.8771086246	1.0000000000	10.8601801806	1.0000000000	0.0000000000	0.0000000000
0.0100000000	135.1349021656	1.0000000000	901.0820760087	1.0000000000	0.0000000000	0.0000000000	17.0142028776	1.0000000000	45.7389780236	1.0000000000	0.0000000000	0.0000000000
0.0200000000	145.1710126061	1.0000000000	875.3194356149	1.0000000000	0.0000000000	0.0000000000	18.8901853097	1.0000000000	102.6804454058	1.0000000000	0.0000000000	0.0000000000
0.0300000000	153.3295415075	1.0000000000	837.5078559753	1.0000000000	0.0000000000	0.0000000000	7.6487956655	1.0000000000	174.7875827161	1.0000000000	0.0000000000	0.0000000000
0.0400000000	158.5426738305	1.0000000000	786.2193577528	1.0000000000	0.0000000000	0.0000000000	-13.7398936550	1.0000000000	255.6294616261	1.0000000000	0.0000000000	0.0000000000
0.0500000000	160.4619627203	1.0000000000	721.5106236446	1.0000000000	0.0000000000	0.0000000000	-37.1444426585	1.0000000000	340.2765955525	1.0000000000	0.0000000000	0.0000000000
0.0600000000	157.4119899366	1.0000000000	643.5918229898	1.0000000000	0.0000000000	0.0000000000	-58.8796835363	1.0000000000	421.9808003238	1.0000000000	0.0000000000	0.0000000000
0.0700000000	148.9228341994	1.0000000000	553.9096399278	1.0000000000	0.0000000000	0.0000000000	-76.9021099349	1.0000000000	495.3225487231	1.0000000000	0.0000000000	0.0000000000
0.0800000000	134.5674764641	1.0000000000	456.5316141873	1.0000000000	0.0000000000	0.0000000000	-91.6021949173	1.0000000000	559.1121677187	1.0000000000	0.0000000000	0.0000000000
0.0900000000	114.6445267679	1.0000000000	357.1820896063	1.0000000000	0.0000000000	0.0000000000	-104.0074475175	1.0000000000	614.8255571528	1.0000000000	0.0000000000	0.0000000000
0.1000000000	91.2195604857	1.0000000000	263.0639476461	1.0000000000	0.0000000000	0.0000000000	-113.8026398539	1.0000000000	664.6667050052	1.0000000000	0.0000000000	0.0000000000
0.1100000000	66.7790442054	1.0000000000	181.1147878079	1.0000000000	0.0000000000	0.0000000000	-121.4268014844	1.0000000000	710.7317491836	1.0000000000	0.0000000000	0.0000000000
0.1200000000	44.8987999628	1.0000000000	115.2929468846	1.0000000000	0.0000000000	0.0000000000	-125.9490077010	1.0000000000	753.8297700076	1.0000000000	0.0000000000	0.0000000000
0.1300000000	27.2803986595	1.0000000000	66.2748396534	1.0000000000	0.0000000000	0.0000000000	-127.1691869133	1.0000000000	793.5466892145	1.0000000000	0.0000000000	0.0000000000
0.1400000000	14.4793782846	1.0000000000	32.9152482646	1.0000000000	0.0000000000	0.0000000000	-125.2981291225	1.0000000000	828.0838027131	1.0000000000	0.0000000000	0.0000000000
0.1500000000	6.3811880391	1.0000000000	12.4606675301	1.0000000000	0.0000000000	0.0000000000	-120.5421004935	1.0000000000	855.3988719427	1.0000000000	0.0000000000	0.0000000000
0.1600000000	1.9179120575	1.0000000000	1.6763054692	1.0000000000	0.0000000000	0.0000000000	-114.0075337777	1.0000000000	874.3314591228	1.0000000000	0.0000000000	0.0000000000
0.1700000000	0.0000000000	1.0000000000	0.0000000000	1.0000000000	0.0000000000	0.0000000000	-106.2302463666	1.0000000000	884.5706908309	1.0000000000	0.0000000000	0.0000000000
0.1800000000	0.0000000000	1.0000000000	0.0000000000	1.0000000000	0.0000000000	0.0000000000	-98.0985549452	1.0000000000	886.5814821316	1.0000000000	0.0000000000	0.0000000000
0.1900000000	0.0000000000	1.0000000000	0.0000000000	1.0000000000	0.0000000000	0.0000000000	-90.0981952270	1.0000000000	881.3990134433	1.0000000000	0.0000000000	0.0000000000
0.2000000000	0.0000000000	1.0000000000	0.0000000000	1.0000000000	0.0000000000	0.0000000000	-82.2387722533	1.0000000000	870.4980519388	1.0000000000	0.0000000000	0.0000000000
0.2100000000	0.0000000000	1.0000000000	0.0000000000	1.0000000000	0.0000000000	0.0000000000	-74.5682977893	1.0000000000	855.2865948742	1.0000000000	0.0000000000	0.0000000000
0.2200000000	0.0000000000	1.0000000000	0.0000000000	1.0000000000	0.0000000000	0.0000000000	-66.8673371152	1.0000000000	837.3324555415	1.0000000000	0.0000000000	0.0000000000
0.2300000000	0.0000000000	1.0000000000	0.0000000000	1.0000000000	0.0000000000	0.0000000000	-59.2751674087	1.0000000000	818.1463121588	1.0000000000	0.0000000000	0.0000000000
0.2400000000	0.0000000000	1.0000000000	0.0000000000	1.0000000000	0.0000000000	0.0000000000	-51.9116695817	1.0000000000	798.9977069965	1.0000000000	0.0000000000	0.0000000000
0.2500000000	0.0000000000	1.0000000000	0.0000000000	1.0000000000	0.0000000000	0.0000000000	-44.9369198262	1.0000000000	781.0285900930	1.0000000000	0.0000000000	0.0000000000
0.2600000000	0.0000000000	1.0000000000	0.0000000000	1.0000000000	0.0000000000	0.0000000000	-38.4673650090	1.0000000000	765.0559700805	1.0000000000	0.0000000000	0.0000000000
0.2700000000	0.0000000000	1.0000000000	0.0000000000	1.0000000000	0.0000000000	0.0000000000	-32.3990895535	1.0000000000	751.9787308903	1.0000000000	0.0000000000	0.0000000000
0.2800000000	0.0000000000	1.0000000000	0.0000000000	1.0000000000	0.0000000000	0.0000000000	-26.6892548964	1.0000000000	742.3732583893	1.0000000000	0.0000000000	0.0000000000
0.2900000000	0.0000000000	1.0000000000	0.0000000000	1.0000000000	0.0000000000	0.0000000000	-21.1029866378	1.0000000000	736.4928627636	1.0000000000	0.0000000000	0.0000000000
0.3000000000	0.0000000000	1.0000000000	0.0000000000	1.0000000000	0.0000000000	0.0000000000	-15.5433794835	1.0000000000	734.5263439627	1.0000000000	0.0000000000	0.0000000000
0.3100000000	0.0000000000	1.0000000000	0.0000000000	1.0000000000	0.0000000000	0.0000000000	-9.9251040334	1.0000000000	736.3451599766	1.0000000000	0.0000000000	0.0000000000
0.3200000000	0.0000000000	1.0000000000	0.0000000000	1.0000000000	0.0000000000	0.0000000000	-4.2055013521	1.0000000000	741.3132940990	1.0000000000	0.0000000000	0.0000000000
0.3300000000	0.0000000000	1.0000000000	0.0000000000	1.0000000000	0.0000000000	0.0000000000	1.6111727823	1.0000000000	748.6533498035	1.0000000000	0.0000000000	0.0000000000
0.3400000000	0.0000000000	1.0000000000	0.0000000000	1.0000000000	0.0000000000	0.0000000000	7.5305873751	1.0000000000	757.5882286834	1.0000000000	0.0000000000	0.0000000000
0.3500000000	0.0000000000	1.0000000000	0.0000000000	1.0000000000	0.0000000000	0.0000000000	13.5030125685	1.0000000000	767.3073951351	1.0000000000	0.0000000000	0.0000000000
0.3600000000	0.0000000000	1.0000000000	0.0000000000	1.0000000000	0.0000000000	0.0000000000	19.5979740048	1.0000000000	777.4027581568	1.0000000000	0.0000000000	0.0000000000
0.3700000000	0.0000000000	1.0000000000	0.0000000000	1.0000000000	0.0000000000	0.0000000000	25.8519495240	1.0000000000	787.4986693868	1.0000000000	0.0000000000	0.0000000000
0.3800000000	0.0000000000	1.0000000000	0.0000000000	1.0000000000	0.0000000000	0.0000000000	32.3180888583	1.0000000000	797.4913441832	1.0000000000	0.0000000000	0.0000000000
0.3900000000	0.0000000000	1.0000000000	0.0000000000	1.0000000000	0.0000000000	0.0000000000	39.0144503880	1.0000000000	807.3416340852	1.0000000000	0.0000000000	0.0000000000
0.4000000000	0.0000000000	1.0000000000	0.0000000000	1.0000000000	0.0000000000	0.0000000000	45.8961194914	1.0000000000	817.0331144272	1.0000000000	0.0000000000	0.0000000000
0.4100000000	0.0000000000	1.0000000000	0.0000000000	1.0000000000	0.0000000000	0.0000000000	52.9486736399	1.0000000000	826.8074224736	1.0000000000	0.0000000000	0.0000000000
0.4200000000	0.0000000000	1.0000000000	0.0000000000	1.0000000000	0.0000000000	0.0000000000	60.1287242769	1.0000000000	837.0148917850	1.0000000000	0.0000000000	0.0000000000
0.4300000000	0.0000000000	1.0000000000	0.0000000000	1.0000000000	0.0000000000	0.0000000000	67.4320817010	1.0000000000	848.0193396562	1.0000000000	0.0000000000	0.0000000000
0.4400000000	0.0000000000	1.0000000000	0.0000000000	1.0000000000	0.0000000000	0.0000000000	74.8790474052	1.0000000000	859.8207545028	1.0000000000	0.0000000000	0.0000000000
0.4500000000	0.0000000000	1.0000000000	0.0000000000	1.0000000000	0.0000000000	0.0000000000	82.4661447092	1.0000000000	872.1069297589	1.0000000000	0.0000000000	0.0000000000
0.4600000000	0.0000000000	1.0000000000	0.0000000000	1.0000000000	0.0000000000	0.0000000000	90.3178510380	1.0000000000	883.7842716482	1.0000000000	0.0000000000	0.0000000000
0.4700000000	0.0000000000	1.0000000000	0.0000000000	1.0000000000	0.0000000000	0.0000000000	98.5674644426	1.0000000000	893.1970897200	1.0000000000	0.0000000000	0.0000000000
0.4800000000	4.5237748820	1.0000000000	7.1300065835	1.0000000000	0.0000000000	0.0000000000	107.3513627797	1.0000000000	898.4185447551	1.0000000000	0.0000000000	0.0000000000
0.4900000000	7.6791297805	1.0000000000	27.0462719565	1.0000000000	0.0000000000	0.0000000000	116.7028920733	1.0000000000	897.4748649259	1.0000000000	0.0000000000	0.0000000000
0.5000000000	9.5186856721	1.0000000000	62.7238762108	1.0000000000	0.0000000000	0.0000000000	126.3318924256	1.0000000000	888.6120814151	1.0000000000	0.0000000000	0.0000000000
0.5100000000	7.0143460948	1.0000000000	115.7139284067	1.0000000000	0.0000000000	0.0000000000	135.7394577843	1.0000000000	870.2356105330	1.0000000000	0.0000000000	0.0000000000
0.5200000000	-2.3973521034	1.0000000000	183.4243243712	1.0000000000	0.0000000000	0.0000000000	144.1297274858	1.0000000000	841.0817267944	1.0000000000	0.0000000000	0.0000000000
0.5300000000	-18.5189509888	1.0000000000	260.1088629083	1.0000000000	0.0000000000	0.0000000000	150.6651556576	1.0000000000	800.1269721984	1.0000000000	0.0000000000	0.0000000000
0.5400000000	-37.9754613911	1.0000000000	338.7482125942	1.0000000000	0.0000000000	0.0000000000	154.5757899616	1.0000000000	746.8401197876	1.0000000000	0.0000000000	0.0000000000
0.5500000000	-56.7578604068	1.0000000000	413.1788771100	1.0000000000	0.0000000000	0.0000000000	155.0441140603	1.0000000000	681.2594696929	1.0000000000	0.0000000000	0.0000000000
0.5600000000	-72.4632085075	1.0000000000	479.0968480907	1.0000000000	0.0000000000	0.0000000000	151.3122994226	1.0000000000	604.2940716156	1.0000000000	0.0000000000	0.0000000000
